<?xml version="1.0" standalone="no"?><!DOCTYPE svg PUBLIC "-//W3C//DTD SVG 1.1//EN" "http://www.w3.org/Graphics/SVG/1.1/DTD/svg11.dtd"><svg t="1745313225664" class="icon" viewBox="0 0 1024 1024" version="1.1" xmlns="http://www.w3.org/2000/svg" p-id="1493" xmlns:xlink="http://www.w3.org/1999/xlink" width="200" height="200"><path d="M0 0m170.666667 0l682.666666 0q170.666667 0 170.666667 170.666667l0 682.666666q0 170.666667-170.666667 170.666667l-682.666666 0q-170.666667 0-170.666667-170.666667l0-682.666666q0-170.666667 170.666667-170.666667Z" fill="#1987FF" p-id="1494"></path><path d="M220.16 223.744v221.312h252.928v68.906667H190.165333v242.389333h282.922667v137.002667h77.824v-137.002667h284.544V513.962667H550.912v-68.906667h253.738667V223.744H550.912V144.298667h-77.824v79.445333H220.16z m506.666667 155.648h-175.914667v-89.984h175.914667v89.984z m-253.738667 0h-175.104v-89.984h175.104v89.984z m284.544 311.296h-206.72V579.626667h206.72v111.061333z m-284.544 0h-205.098667V579.626667h205.098667v111.061333z" fill="#FFFFFF" p-id="1495"></path></svg>