<?xml version="1.0" standalone="no"?><!DOCTYPE svg PUBLIC "-//W3C//DTD SVG 1.1//EN" "http://www.w3.org/Graphics/SVG/1.1/DTD/svg11.dtd"><svg t="1747296626174" class="icon" viewBox="0 0 1024 1024" version="1.1" xmlns="http://www.w3.org/2000/svg" p-id="10469" xmlns:xlink="http://www.w3.org/1999/xlink" width="200" height="200"><path d="M972.8 824.32c0 81.92-66.56 148.48-148.48 148.48S675.84 906.24 675.84 824.32c0-36.864 13.312-69.632 34.816-96.256L560.128 619.52c-13.312 10.24-29.696 15.36-48.128 15.36s-35.84-6.144-50.176-17.408L311.296 727.04c23.552 26.624 36.864 61.44 36.864 97.28 0 81.92-66.56 148.48-148.48 148.48S51.2 906.24 51.2 824.32 117.76 675.84 199.68 675.84c28.672 0 56.32 8.192 79.872 23.552l157.696-113.664c-4.096-10.24-7.168-21.504-7.168-32.768 0-37.888 26.624-69.632 61.44-78.848V346.112c-69.632-12.288-122.88-72.704-122.88-146.432C368.64 117.76 435.2 51.2 517.12 51.2S665.6 117.76 665.6 199.68c0 76.8-58.368 140.288-133.12 147.456v125.952c34.816 9.216 61.44 40.96 61.44 78.848 0 12.288-3.072 24.576-8.192 34.816l155.648 112.64 1.024 1.024c23.552-15.36 51.2-24.576 81.92-24.576 81.92 0 148.48 66.56 148.48 148.48z" fill="#ffffff" p-id="10470"></path></svg>