<?xml version="1.0" standalone="no"?><!DOCTYPE svg PUBLIC "-//W3C//DTD SVG 1.1//EN" "http://www.w3.org/Graphics/SVG/1.1/DTD/svg11.dtd"><svg t="1746779533202" class="icon" viewBox="0 0 1024 1024" version="1.1" xmlns="http://www.w3.org/2000/svg" p-id="6280" xmlns:xlink="http://www.w3.org/1999/xlink" width="200" height="200"><path d="M794.432 983.552H51.2a25.6 25.6 0 0 1-25.6-25.6V214.784a25.6 25.6 0 0 1 25.6-25.6h152.768V66.112a25.6 25.6 0 0 1 25.6-25.6H972.8a25.6 25.6 0 0 1 25.6 25.6v743.232a25.6 25.6 0 0 1-25.6 25.6H820.032v123.008a25.6 25.6 0 0 1-25.6 25.6zM76.8 932.352h692.032V240.384H76.8v691.968zM820.032 783.68H947.2V91.648H255.168v97.472h539.264a25.6 25.6 0 0 1 25.6 25.6v568.96z" p-id="6281" fill="#ffffff"></path></svg>